<?xml version="1.0" encoding="UTF-8"?>
<svg width="26px" height="27px" viewBox="0 0 26 27" version="1.1" xmlns="http://www.w3.org/2000/svg" xmlns:xlink="http://www.w3.org/1999/xlink">
    <!-- Generator: Sketch 47.1 (45422) - http://www.bohemiancoding.com/sketch -->
    <title>Facebook-color</title>
    <desc>Created with Sketch.</desc>
    <defs></defs>
    <g id="Symbols" stroke="none" stroke-width="1" fill="none" fill-rule="evenodd">
        <g id="footer" transform="translate(-562.000000, -80.000000)" fill="#1B75C4">
            <g id="social">
                <g transform="translate(561.489982, 32.000000)">
                    <g id="social_icons" transform="translate(0.000000, 48.000000)">
                        <path d="M3.25095072,25.5555556 C2.55986729,25.5555556 2,24.9486197 2,24.2001926 L2,2.35526765 C2,1.60664996 2.55995523,1 3.25095072,1 L23.41444,1 C24.1052596,1 24.6653028,1.60664996 24.6653028,2.35526765 L24.6653028,24.2001926 C24.6653028,24.948715 24.1051717,25.5555556 23.41444,25.5555556 L17.6387309,25.5555556 L17.6387309,16.0462912 L20.58485,16.0462912 L21.0259896,12.3403621 L17.6387309,12.3403621 L17.6387309,9.97436053 C17.6387309,8.90140855 17.9137395,8.17022718 19.3338993,8.17022718 L21.145245,8.16936965 L21.145245,4.85475697 C20.8319796,4.80959408 19.756746,4.7086922 18.5057952,4.7086922 C15.8942245,4.7086922 14.1062726,6.43574375 14.1062726,9.60734064 L14.1062726,12.3403621 L11.1525901,12.3403621 L11.1525901,16.0462912 L14.1062726,16.0462912 L14.1062726,25.5555556 L3.25095072,25.5555556 Z" id="Facebook"></path>
                    </g>
                </g>
            </g>
        </g>
    </g>
</svg>