<?xml version="1.0" encoding="UTF-8"?>
<svg width="38px" height="25px" viewBox="0 0 38 25" version="1.1" xmlns="http://www.w3.org/2000/svg" xmlns:xlink="http://www.w3.org/1999/xlink">
    <!-- Generator: Sketch 46.2 (44496) - http://www.bohemiancoding.com/sketch -->
    <title>GooglePlus-color</title>
    <desc>Created with Sketch.</desc>
    <defs></defs>
    <g id="Page-1" stroke="none" stroke-width="1" fill="none" fill-rule="evenodd">
        <g id="Bookmol_navigation1-Copy" transform="translate(-691.000000, -2994.000000)" fill="#2B292D">
            <g id="social_icons" transform="translate(579.000000, 2994.000000)">
                <path d="M145.81761,9.93609361 L145.81761,5.74617462 L142.830189,5.74617462 L142.830189,9.93609361 L138.528302,9.93609361 L138.528302,12.9288929 L142.830189,12.9288929 L142.830189,17.2385239 L145.81761,17.2385239 L145.81761,12.9288929 L150,12.9288929 L150,9.93609361 L145.81761,9.93609361 L145.81761,9.93609361 Z M124.069182,9.69666967 L124.069182,14.4851485 C124.069182,14.4851485 128.706138,14.4789235 130.594189,14.4789235 C129.571774,17.5831746 127.981987,19.2736274 124.069182,19.2736274 C120.109415,19.2736274 117.018868,16.0578047 117.018868,12.0909091 C117.018868,8.1240135 120.109415,4.90819082 124.069182,4.90819082 C126.162767,4.90819082 127.514874,5.64537714 128.755132,6.67286499 C129.747912,5.67829793 129.664981,5.53655896 132.190786,3.1469883 C130.046654,1.19185239 127.196893,0 124.069182,0 C117.403528,0 112,5.41325563 112,12.0909091 C112,18.7684428 117.403528,24.1818182 124.069182,24.1818182 C134.032472,24.1818182 136.467698,15.4907291 135.660377,9.69666967 L124.069182,9.69666967 L124.069182,9.69666967 Z" id="GooglePlus"></path>
            </g>
        </g>
    </g>
</svg>